<?xml version="1.0" ?>
<mxfile host="app.diagrams.net">
  <diagram name="ERD">
    <mxGraphModel dx="1000" dy="1000" grid="1" gridSize="10" guides="1" tooltips="1" connect="1" arrows="1" fold="1" page="1" pageScale="1" pageWidth="827" pageHeight="1169" math="0" shadow="0">
      <root>
        <mxCell id="0"/>
        <mxCell id="1" parent="0"/>
        <mxCell id="2" value="User" style="shape=swimlane;startSize=20;whiteSpace=wrap;html=1;" vertex="1" parent="1">
          <mxGeometry x="40" y="40" width="160" height="100" as="geometry"/>
        </mxCell>
        <mxCell id="3" value="ServiceCategory" style="shape=swimlane;startSize=20;whiteSpace=wrap;html=1;" vertex="1" parent="1">
          <mxGeometry x="300" y="40" width="160" height="100" as="geometry"/>
        </mxCell>
        <mxCell id="4" value="Service" style="shape=swimlane;startSize=20;whiteSpace=wrap;html=1;" vertex="1" parent="1">
          <mxGeometry x="560" y="40" width="160" height="100" as="geometry"/>
        </mxCell>
        <mxCell id="5" value="UserService" style="shape=swimlane;startSize=20;whiteSpace=wrap;html=1;" vertex="1" parent="1">
          <mxGeometry x="40" y="200" width="160" height="100" as="geometry"/>
        </mxCell>
        <mxCell id="6" value="ServiceRequest" style="shape=swimlane;startSize=20;whiteSpace=wrap;html=1;" vertex="1" parent="1">
          <mxGeometry x="300" y="200" width="160" height="100" as="geometry"/>
        </mxCell>
        <mxCell id="7" value="Proposal" style="shape=swimlane;startSize=20;whiteSpace=wrap;html=1;" vertex="1" parent="1">
          <mxGeometry x="560" y="200" width="160" height="100" as="geometry"/>
        </mxCell>
        <mxCell id="8" value="Review" style="shape=swimlane;startSize=20;whiteSpace=wrap;html=1;" vertex="1" parent="1">
          <mxGeometry x="40" y="360" width="160" height="100" as="geometry"/>
        </mxCell>
        <mxCell id="9" value="ChatMessage" style="shape=swimlane;startSize=20;whiteSpace=wrap;html=1;" vertex="1" parent="1">
          <mxGeometry x="300" y="360" width="160" height="100" as="geometry"/>
        </mxCell>
        <mxCell id="10" value="Notification" style="shape=swimlane;startSize=20;whiteSpace=wrap;html=1;" vertex="1" parent="1">
          <mxGeometry x="560" y="360" width="160" height="100" as="geometry"/>
        </mxCell>
        <mxCell id="11" value="PaymentLog" style="shape=swimlane;startSize=20;whiteSpace=wrap;html=1;" vertex="1" parent="1">
          <mxGeometry x="40" y="520" width="160" height="100" as="geometry"/>
        </mxCell>
        <mxCell id="12" value="SupportTicket" style="shape=swimlane;startSize=20;whiteSpace=wrap;html=1;" vertex="1" parent="1">
          <mxGeometry x="300" y="520" width="160" height="100" as="geometry"/>
        </mxCell>
        <mxCell id="13" value="Address" style="shape=swimlane;startSize=20;whiteSpace=wrap;html=1;" vertex="1" parent="1">
          <mxGeometry x="560" y="520" width="160" height="100" as="geometry"/>
        </mxCell>
        <mxCell id="14" style="endArrow=block;html=1;" edge="1" parent="1" source="4" target="3">
          <mxGeometry relative="1" as="geometry"/>
        </mxCell>
        <mxCell id="15" style="endArrow=block;html=1;" edge="1" parent="1" source="5" target="2">
          <mxGeometry relative="1" as="geometry"/>
        </mxCell>
        <mxCell id="16" style="endArrow=block;html=1;" edge="1" parent="1" source="5" target="4">
          <mxGeometry relative="1" as="geometry"/>
        </mxCell>
        <mxCell id="17" style="endArrow=block;html=1;" edge="1" parent="1" source="6" target="2">
          <mxGeometry relative="1" as="geometry"/>
        </mxCell>
        <mxCell id="18" style="endArrow=block;html=1;" edge="1" parent="1" source="6" target="4">
          <mxGeometry relative="1" as="geometry"/>
        </mxCell>
        <mxCell id="19" style="endArrow=block;html=1;" edge="1" parent="1" source="7" target="2">
          <mxGeometry relative="1" as="geometry"/>
        </mxCell>
        <mxCell id="20" style="endArrow=block;html=1;" edge="1" parent="1" source="7" target="6">
          <mxGeometry relative="1" as="geometry"/>
        </mxCell>
        <mxCell id="21" style="endArrow=block;html=1;" edge="1" parent="1" source="8" target="6">
          <mxGeometry relative="1" as="geometry"/>
        </mxCell>
        <mxCell id="22" style="endArrow=block;html=1;" edge="1" parent="1" source="8" target="2">
          <mxGeometry relative="1" as="geometry"/>
        </mxCell>
        <mxCell id="23" style="endArrow=block;html=1;" edge="1" parent="1" source="8" target="2">
          <mxGeometry relative="1" as="geometry"/>
        </mxCell>
        <mxCell id="24" style="endArrow=block;html=1;" edge="1" parent="1" source="9" target="2">
          <mxGeometry relative="1" as="geometry"/>
        </mxCell>
        <mxCell id="25" style="endArrow=block;html=1;" edge="1" parent="1" source="9" target="2">
          <mxGeometry relative="1" as="geometry"/>
        </mxCell>
        <mxCell id="26" style="endArrow=block;html=1;" edge="1" parent="1" source="10" target="2">
          <mxGeometry relative="1" as="geometry"/>
        </mxCell>
        <mxCell id="27" style="endArrow=block;html=1;" edge="1" parent="1" source="11" target="2">
          <mxGeometry relative="1" as="geometry"/>
        </mxCell>
        <mxCell id="28" style="endArrow=block;html=1;" edge="1" parent="1" source="12" target="2">
          <mxGeometry relative="1" as="geometry"/>
        </mxCell>
        <mxCell id="29" style="endArrow=block;html=1;" edge="1" parent="1" source="13" target="2">
          <mxGeometry relative="1" as="geometry"/>
        </mxCell>
      </root>
    </mxGraphModel>
  </diagram>
</mxfile>
